HIERARCHY
ROOT Hips
{
  OFFSET 0.000000 0.000000 0.000000
  CHANNELS 6 Xposition Yposition Zposition Zrotation Yrotation Xrotation
  JOINT Spine
  {
    OFFSET 0.062172 1.937575 -0.492720
    CHANNELS 3 Zrotation Yrotation Xrotation
    JOINT Spine1
    {
      OFFSET -0.031137 2.036208 -0.058297
      CHANNELS 3 Zrotation Yrotation Xrotation
      JOINT Spine2
      {
        OFFSET -0.069919 2.151870 0.173696
        CHANNELS 3 Zrotation Yrotation Xrotation
        JOINT Neck
        {
          OFFSET 0.044207 1.410100 0.265621
          CHANNELS 3 Zrotation Yrotation Xrotation
          JOINT Head
          {
            OFFSET -0.049801 1.458443 -0.006888
            CHANNELS 3 Zrotation Yrotation Xrotation
            End Site
            {
              OFFSET 0 0 0
            }
          }
        }
        JOINT LeftShoulder
        {
          OFFSET 2.183824 1.477530 -0.356942
          CHANNELS 3 Zrotation Yrotation Xrotation
          JOINT LeftArm
          {
            OFFSET 5.054600 -0.000000 0.000000
            CHANNELS 3 Zrotation Yrotation Xrotation
            JOINT LeftForeArm
            {
              OFFSET 3.390130 -0.000000 0.000000
              CHANNELS 3 Zrotation Yrotation Xrotation
              JOINT LeftHand
              {
                OFFSET 0.572425 -0.000000 -0.000000
                CHANNELS 3 Zrotation Yrotation Xrotation
                JOINT LeftHandIndex1
                {
                  OFFSET 0.461504 -0.000000 -0.000000
                  CHANNELS 3 Zrotation Yrotation Xrotation
                  End Site
                  {
                    OFFSET 0 0 0
                  }
                }
              }
            }
          }
        }
        JOINT RightShoulder
        {
          OFFSET -2.060333 1.728387 -0.474374
          CHANNELS 3 Zrotation Yrotation Xrotation
          JOINT RightArm
          {
            OFFSET -5.070100 -0.000000 0.000000
            CHANNELS 3 Zrotation Yrotation Xrotation
            JOINT RightForeArm
            {
              OFFSET -3.149570 -0.000000 -0.000000
              CHANNELS 3 Zrotation Yrotation Xrotation
              JOINT RightHand
              {
                OFFSET -0.718191 -0.000000 -0.000000
                CHANNELS 3 Zrotation Yrotation Xrotation
                JOINT RightHandIndex1
                {
                  OFFSET -0.579024 -0.000000 -0.000000
                  CHANNELS 3 Zrotation Yrotation Xrotation
                  End Site
                  {
                    OFFSET 0 0 0
                  }
                }
              }
            }
          }
        }
      }
    }
  }
  JOINT LeftUpLeg
  {
    OFFSET 2.115383 -5.811973 0.000000
    CHANNELS 3 Zrotation Yrotation Xrotation
    JOINT LeftLeg
    {
      OFFSET 2.365414 -6.498926 0.000000
      CHANNELS 3 Zrotation Yrotation Xrotation
      JOINT LeftFoot
      {
        OFFSET 0.177591 -0.487927 1.738650
        CHANNELS 3 Zrotation Yrotation Xrotation
        JOINT LeftToeBase
        {
          OFFSET 0.000000 -0.000000 0.912052
          CHANNELS 3 Zrotation Yrotation Xrotation
          End Site
          {
            OFFSET 0 0 0
          }
        }
      }
    }
  }
  JOINT RightUpLeg
  {
    OFFSET -2.104805 -5.782908 0.000000
    CHANNELS 3 Zrotation Yrotation Xrotation
    JOINT RightLeg
    {
      OFFSET -2.348802 -6.453285 0.000000
      CHANNELS 3 Zrotation Yrotation Xrotation
      JOINT RightFoot
      {
        OFFSET -0.228416 -0.627566 1.804693
        CHANNELS 3 Zrotation Yrotation Xrotation
        JOINT RightToeBase
        {
          OFFSET -0.000000 -0.000000 0.958865
          CHANNELS 3 Zrotation Yrotation Xrotation
          End Site
          {
            OFFSET 0 0 0
          }
        }
      }
    }
  }
}
MOTION
Frames: 10
Frame Time: 0.00833333
21.869900 15.396300 0.507335 -161.021000 -84.261400 157.823000 -14.934200 -12.644900 -2.461140 0.000000 0.000000 25.692900 23.413100 0.000000 -21.490100 0.000000 0.000000 -7.238480 21.624300 10.586600 -2.851180 0.000000 0.000000 23.369100 -29.765000 0.000000 -24.693500 0.000000 0.000000 -23.173800 -1.435650 0.503386 6.619790 -0.656537 0.396733 6.171580 0.106778 0.065541 2.654450 0.107792 -7.187820 -5.411190 0.485208 -4.788430 1.713130 -0.000000 -0.000000 0.000000 88.787000 -19.518500 -3.734620 0.000000 0.000000 138.064000 -13.204800 0.000000 3.747130 0.000000 0.000000 7.125020 -0.000000 -0.000000 0.000000 -93.091400 36.633100 -8.218410 0.000000 0.000000 130.959000 25.695900 0.000000 -20.228300 0.000000 0.000000 7.125020
21.873100 15.395500 0.507717 -161.368000 -84.257600 158.189000 -14.941000 -12.518400 -2.552770 0.000000 0.000000 25.791400 23.320500 0.000000 -21.401800 0.000000 0.000000 -7.531590 21.559600 10.473500 -2.929950 0.000000 0.000000 23.417600 -29.719300 0.000000 -24.560000 0.000000 0.000000 -23.420200 -1.356340 0.522094 6.646840 -0.724732 0.425533 6.152140 -0.009215 0.084683 2.619850 0.267377 -7.107830 -5.398160 0.424575 -4.739310 1.705450 0.000000 -0.000000 0.000000 88.558800 -19.545300 -3.455620 0.000000 0.000000 138.142000 -12.577600 0.000000 4.141110 0.000000 0.000000 7.125020 0.000000 -0.000000 0.000000 -92.915800 36.547100 -7.724420 0.000000 0.000000 130.907000 25.921200 0.000000 -20.347900 0.000000 0.000000 7.125020
21.876400 15.393700 0.507358 -160.311000 -84.142000 157.140000 -14.736500 -12.273900 -2.717590 0.000000 0.000000 26.079900 23.164900 0.000000 -21.384500 0.000000 0.000000 -7.986350 21.686600 10.358100 -2.990010 0.000000 0.000000 23.440800 -29.624700 0.000000 -24.380900 0.000000 0.000000 -23.676700 -1.178060 0.540219 6.734140 -0.698006 0.456143 6.112360 -0.083253 0.106929 2.530660 0.382328 -6.966020 -5.295970 0.378006 -4.648040 1.658710 -0.000000 -0.000000 0.000000 88.381900 -19.513700 -3.158420 0.000000 0.000000 138.188000 -12.286000 0.000000 4.338710 0.000000 0.000000 7.125020 -0.000000 -0.000000 0.000000 -92.710800 36.528300 -7.260040 0.000000 0.000000 130.830000 26.261100 0.000000 -20.337000 0.000000 0.000000 7.125020
21.880300 15.389500 0.506071 -158.369000 -83.993600 155.171000 -14.416700 -12.026800 -2.827040 0.000000 0.000000 26.341400 22.982600 0.000000 -21.398100 0.000000 0.000000 -8.281000 21.920000 10.082700 -3.062280 0.000000 0.000000 23.571500 -29.414200 0.000000 -24.137800 0.000000 0.000000 -24.069700 -0.963633 0.532584 6.797170 -0.592798 0.452216 6.125800 -0.095123 0.110011 2.510450 0.458303 -6.696080 -5.261890 0.322860 -4.470230 1.615760 0.000000 -0.000000 0.000000 88.235400 -19.383800 -2.809630 0.000000 0.000000 138.187000 -12.511000 0.000000 4.188340 0.000000 0.000000 7.125020 0.000000 -0.000000 0.000000 -92.381200 36.635000 -6.657020 0.000000 0.000000 130.723000 26.226400 0.000000 -20.322000 0.000000 0.000000 7.125020
21.883900 15.381100 0.505643 -157.442000 -83.897200 154.141000 -14.241600 -11.791200 -2.890880 0.000000 0.000000 26.643700 22.764400 0.000000 -21.488700 0.000000 0.000000 -8.327420 22.017800 9.671330 -3.113680 0.000000 0.000000 23.805000 -29.095400 0.000000 -23.909200 0.000000 0.000000 -24.522300 -0.820105 0.549823 6.851590 -0.545576 0.476198 6.197990 -0.128267 0.123874 2.556260 0.724370 -6.186740 -5.426940 0.215589 -4.137900 1.648360 -0.000000 -0.000000 0.000000 88.057300 -19.309400 -2.442610 0.000000 0.000000 138.190000 -13.298700 0.000000 3.855230 0.000000 0.000000 7.125020 -0.000000 -0.000000 0.000000 -91.990500 36.628700 -5.931450 0.000000 0.000000 130.614000 26.019200 0.000000 -20.274800 0.000000 0.000000 7.125020
21.889100 15.371800 0.505806 -157.832000 -83.873400 154.456000 -14.228100 -11.544200 -3.026680 0.000000 0.000000 26.965100 22.529000 0.000000 -21.588700 0.000000 0.000000 -8.355950 21.930800 9.305770 -3.276010 0.000000 0.000000 24.140200 -28.737900 0.000000 -23.865100 0.000000 0.000000 -24.640700 -0.742403 0.605603 6.907630 -0.601047 0.549471 6.267880 -0.232603 0.162166 2.599300 1.203370 -5.697850 -5.544440 0.040908 -3.826430 1.625610 -0.000000 -0.000000 0.000000 87.831800 -19.380300 -2.085350 0.000000 0.000000 138.223000 -13.902500 0.000000 3.699110 0.000000 0.000000 7.125020 -0.000000 -0.000000 0.000000 -91.638100 36.455800 -5.196740 0.000000 0.000000 130.523000 25.973500 0.000000 -20.212500 0.000000 0.000000 7.125020
21.896200 15.361500 0.504759 -158.395000 -83.926200 154.952000 -14.246700 -11.285800 -3.184600 0.000000 0.000000 27.250500 22.313900 0.000000 -21.536800 0.000000 0.000000 -8.860930 21.799900 8.943540 -3.513540 0.000000 0.000000 24.591300 -28.440600 0.000000 -23.861700 0.000000 0.000000 -24.826000 -0.752928 0.621942 7.046420 -0.634527 0.565272 6.312200 -0.262923 0.168509 2.569030 1.697200 -5.109730 -5.611600 -0.152729 -3.450290 1.578190 0.000000 0.000000 0.000000 87.671900 -19.390600 -1.844160 0.000000 0.000000 138.317000 -13.928000 0.000000 3.721250 0.000000 0.000000 7.125020 0.000000 0.000000 0.000000 -91.347800 36.416500 -4.584670 0.000000 0.000000 130.497000 26.016200 0.000000 -20.227700 0.000000 0.000000 7.125020
21.901600 15.349500 0.502924 -158.005000 -83.926800 154.407000 -14.156100 -11.013400 -3.204740 0.000000 0.000000 27.487700 22.113300 0.000000 -21.480200 0.000000 0.000000 -9.296510 21.818000 8.581310 -3.680190 0.000000 0.000000 25.117100 -28.194600 0.000000 -23.809600 0.000000 0.000000 -25.196700 -0.680672 0.657037 7.204030 -0.620904 0.606519 6.406520 -0.292451 0.188188 2.581020 2.249680 -4.443540 -5.464450 -0.339819 -3.023380 1.456020 -0.000000 -0.000000 0.000000 87.548000 -19.446500 -1.593540 0.000000 0.000000 138.393000 -13.665300 0.000000 3.665200 0.000000 0.000000 7.125020 -0.000000 -0.000000 0.000000 -91.072400 36.364300 -4.009840 0.000000 0.000000 130.472000 26.058800 0.000000 -20.243600 0.000000 0.000000 7.125020
21.904200 15.338800 0.501538 -159.355000 -84.040100 155.634000 -14.321300 -10.823500 -3.237090 0.000000 0.000000 27.698300 21.950400 0.000000 -21.502100 0.000000 0.000000 -9.190820 21.586500 8.193310 -3.859630 0.000000 0.000000 25.637500 -27.900200 0.000000 -23.808100 0.000000 0.000000 -25.336000 -0.745363 0.741501 7.221850 -0.705196 0.710099 6.526170 -0.348114 0.235842 2.696700 2.963600 -3.744780 -5.312220 -0.582959 -2.579310 1.329440 0.000000 0.000000 0.000000 87.386300 -19.584200 -1.223010 0.000000 0.000000 138.307000 -13.311100 0.000000 3.606710 0.000000 0.000000 7.125020 0.000000 0.000000 0.000000 -90.838700 36.123000 -3.453850 0.000000 0.000000 130.360000 25.977500 0.000000 -20.209100 0.000000 0.000000 7.125020
21.903500 15.327500 0.500996 -161.890000 -84.223500 158.061000 -14.647000 -10.708000 -3.284710 0.000000 0.000000 27.924700 21.789500 0.000000 -21.503800 0.000000 0.000000 -9.087580 21.211000 7.844810 -3.978520 0.000000 0.000000 26.064300 -27.648200 0.000000 -23.831800 0.000000 0.000000 -25.400100 -0.922237 0.797248 7.230160 -0.812113 0.771706 6.625930 -0.362210 0.259103 2.795790 3.570360 -2.954970 -5.178680 -0.818898 -2.071750 1.219670 -0.000000 0.000000 0.000000 87.285400 -19.589100 -0.991192 0.000000 0.000000 138.238000 -12.843400 0.000000 3.792900 0.000000 0.000000 7.125020 -0.000000 0.000000 0.000000 -90.709100 36.007500 -3.035620 0.000000 0.000000 130.228000 25.818800 0.000000 -20.137100 0.000000 0.000000 7.125020
